<?xml version="1.0" standalone="no"?>
<!DOCTYPE svg PUBLIC "-//W3C//DTD SVG 20010904//EN"
 "http://www.w3.org/TR/2001/REC-SVG-20010904/DTD/svg10.dtd">
<svg version="1.0" xmlns="http://www.w3.org/2000/svg"
 width="234.000000pt" height="225.000000pt" viewBox="0 0 234.000000 225.000000"
 preserveAspectRatio="xMidYMid meet">

<g transform="translate(0.000000,225.000000) scale(0.100000,-0.100000)"
fill="#000000" stroke="none">
<path d="M1010 1952 c-140 -81 -261 -151 -268 -155 -9 -6 1 -23 35 -63 27 -29
52 -54 57 -54 4 0 101 52 215 116 113 65 209 118 212 120 3 2 100 -51 215
-116 115 -66 214 -120 221 -120 6 0 32 24 57 52 36 41 43 55 33 64 -17 15
-509 304 -518 304 -2 0 -119 -67 -259 -148z"/>
<path d="M1174 1782 c-49 -27 -134 -74 -188 -106 l-98 -58 43 -44 42 -43 44
40 c72 66 142 93 243 93 74 0 93 -4 150 -31 36 -16 85 -47 110 -66 l45 -36 36
42 c20 23 35 45 33 48 -4 8 -359 209 -367 209 -1 0 -43 -22 -93 -48z m117 -12
c35 -19 18 -80 -22 -80 -19 0 -49 25 -49 41 0 10 36 49 46 49 3 0 14 -5 25
-10z"/>
<path d="M618 1734 l-28 -15 0 -448 0 -449 33 -21 32 -21 147 150 c81 82 159
157 173 166 25 16 26 16 75 -30 137 -128 295 -130 424 -5 l60 59 35 -35 c19
-19 43 -35 53 -35 10 0 18 -7 18 -15 0 -8 6 -15 13 -15 8 0 18 -8 23 -19 5
-10 51 -63 102 -116 l93 -98 34 16 35 17 0 450 0 449 -29 15 -29 15 -119 -117
c-65 -64 -144 -138 -174 -164 l-57 -47 -39 47 c-22 26 -64 61 -94 77 -47 26
-64 30 -134 30 -70 0 -87 -4 -134 -30 -30 -16 -72 -51 -95 -77 l-41 -48 -40
39 c-22 22 -47 41 -56 43 -8 1 -66 57 -129 123 -62 66 -116 121 -119 122 -3 1
-18 -5 -33 -13z m1168 -234 c11 0 14 -41 14 -222 0 -123 -3 -233 -6 -246 -5
-18 -13 -22 -33 -20 -29 3 -27 -21 -33 364 l-3 162 24 -19 c13 -11 30 -19 37
-19z m-1005 0 c18 0 19 -10 19 -209 0 -270 -5 -296 -52 -254 -16 15 -18 36
-18 246 0 205 2 228 16 223 9 -3 24 -6 35 -6z m562 -43 c42 -18 101 -85 117
-131 27 -81 -20 -186 -103 -229 -46 -24 -141 -26 -185 -3 -76 39 -124 145
-102 225 13 49 71 118 115 137 39 17 117 17 158 1z m320 -55 c9 -9 17 -29 17
-48 0 -27 -5 -34 -30 -43 -60 -20 -117 29 -90 78 21 40 65 45 103 13z m-704 4
c7 -8 11 -30 9 -48 -4 -43 -41 -63 -87 -47 -26 9 -31 16 -31 42 0 17 7 39 17
49 19 22 76 24 92 4z m717 -182 c13 -19 14 -27 2 -51 -17 -36 -62 -62 -85 -47
-31 19 -41 47 -31 82 15 54 84 63 114 16z m-716 7 c24 -46 -1 -101 -47 -101
-26 0 -73 40 -73 62 0 8 7 24 16 36 20 30 88 31 104 3z"/>
<path d="M1224 1366 c-42 -19 -64 -52 -64 -98 0 -56 34 -89 98 -96 47 -4 54
-2 82 26 42 42 43 106 2 145 -34 33 -77 41 -118 23z"/>
<path d="M960 1009 c0 -7 -17 -31 -37 -52 -21 -22 -33 -41 -28 -43 6 -2 87
-49 180 -104 94 -55 178 -100 187 -100 22 0 378 197 378 210 0 3 -18 25 -39
48 l-40 44 -56 -42 c-80 -59 -139 -83 -220 -88 -103 -6 -168 19 -297 119 -19
14 -28 16 -28 8z m334 -175 c9 -8 16 -22 16 -29 0 -17 -27 -45 -44 -45 -7 0
-21 9 -31 20 -38 42 19 94 59 54z"/>
<path d="M796 809 c-25 -28 -46 -55 -46 -59 0 -12 500 -300 520 -300 7 0 232
128 492 279 16 9 28 19 28 23 0 4 -22 31 -49 60 l-49 52 -83 -51 c-46 -28
-142 -83 -213 -122 l-130 -72 -50 27 c-52 28 -271 153 -337 193 l-37 22 -46
-52z"/>
<path d="M1035 285 c-24 -24 -31 -57 -19 -90 4 -9 28 -27 55 -40 57 -30 66
-42 46 -63 -14 -13 -22 -14 -58 -3 -34 10 -43 10 -50 -1 -13 -20 -5 -32 32
-45 89 -32 174 45 125 112 -7 10 -33 28 -57 40 -30 14 -44 27 -44 40 0 17 7
20 40 20 68 0 87 25 34 44 -49 17 -78 13 -104 -14z"/>
<path d="M2119 287 c-94 -63 -87 -190 14 -240 41 -21 100 -17 134 8 16 12 16
15 3 29 -13 13 -21 14 -47 4 -60 -22 -113 21 -113 92 0 57 65 94 118 67 26
-13 30 -12 41 4 16 27 15 28 -24 45 -49 20 -87 18 -126 -9z"/>
<path d="M230 288 c0 -11 -53 -154 -85 -231 -6 -14 -2 -17 23 -17 24 0 32 6
41 30 9 27 14 30 56 30 42 0 47 -3 56 -30 8 -22 17 -30 35 -30 13 0 24 6 24
13 0 6 -19 65 -41 130 l-42 117 -33 0 c-21 0 -34 -5 -34 -12z m64 -125 c7 -21
4 -23 -28 -23 l-35 0 16 46 c16 46 16 46 28 23 7 -13 16 -34 19 -46z"/>
<path d="M470 262 c0 -22 3 -80 6 -130 7 -88 8 -92 30 -92 22 0 24 4 24 45 0
41 2 45 25 45 18 0 31 -11 51 -45 19 -34 32 -45 50 -45 30 0 30 0 -1 59 -24
48 -24 49 -5 66 29 26 26 80 -5 110 -21 22 -33 25 -100 25 l-75 0 0 -38z m148
-41 c5 -30 -20 -51 -60 -51 -26 0 -28 3 -28 41 l0 40 43 -3 c36 -3 42 -6 45
-27z"/>
<path d="M750 275 c0 -21 5 -25 30 -25 l30 0 0 -105 0 -105 25 0 25 0 0 105 0
106 30 6 c21 4 30 11 30 24 0 17 -9 19 -85 19 -84 0 -85 0 -85 -25z"/>
<path d="M1272 173 l3 -128 83 -3 c82 -3 82 -3 82 23 0 24 -3 25 -55 25 -54 0
-55 0 -55 30 0 29 1 30 50 30 47 0 50 2 50 25 0 23 -3 25 -50 25 -49 0 -50 1
-50 30 0 30 1 30 55 30 48 0 55 2 55 20 0 18 -7 20 -85 20 l-86 0 3 -127z"/>
<path d="M1548 170 l3 -130 75 0 c72 0 74 1 74 25 0 23 -3 25 -50 25 l-50 0 0
105 0 105 -27 0 -28 0 3 -130z"/>
<path d="M1790 262 c0 -22 3 -80 6 -130 l7 -92 78 0 c78 0 79 0 79 25 0 24 -3
25 -55 25 -54 0 -55 0 -55 30 0 29 1 30 50 30 47 0 50 2 50 25 0 23 -3 25 -50
25 -49 0 -50 1 -50 30 0 30 1 30 55 30 48 0 55 2 55 20 0 18 -7 20 -85 20
l-85 0 0 -38z"/>
</g>
</svg>
