<?xml version="1.0" standalone="no"?>
<!DOCTYPE svg PUBLIC "-//W3C//DTD SVG 20010904//EN"
 "http://www.w3.org/TR/2001/REC-SVG-20010904/DTD/svg10.dtd">
<svg version="1.0" xmlns="http://www.w3.org/2000/svg"
 width="1280.000000pt" height="1280.000000pt" viewBox="0 0 1280.000000 1280.000000"
 preserveAspectRatio="xMidYMid meet">

<g transform="translate(0.000000,1280.000000) scale(0.100000,-0.100000)"
fill="#000000" stroke="none">
<path d="M6035 12784 c-22 -2 -103 -8 -180 -14 -836 -65 -1726 -329 -2477
-736 -581 -315 -1061 -676 -1528 -1151 -308 -311 -509 -555 -742 -898 -615
-904 -974 -1916 -1080 -3040 -18 -189 -18 -901 0 -1090 122 -1300 588 -2459
1390 -3460 259 -323 653 -717 982 -981 903 -725 1995 -1196 3130 -1348 332
-44 445 -51 870 -51 425 0 538 7 870 51 1139 153 2221 619 3135 1352 276 221
662 600 886 867 863 1036 1354 2218 1481 3570 18 189 18 901 0 1090 -122 1300
-588 2459 -1390 3460 -259 323 -653 717 -982 981 -811 652 -1766 1094 -2790
1293 -400 77 -666 102 -1145 106 -214 1 -408 1 -430 -1z m30 -4006 c146 -444
265 -809 265 -812 0 -3 -21 -11 -47 -18 -68 -17 -137 -87 -151 -154 -19 -88
12 -167 87 -219 43 -30 43 -30 181 -30 138 0 138 0 181 30 74 52 106 133 87
222 -14 64 -85 135 -151 151 -26 7 -47 15 -47 19 0 3 104 321 231 707 126 386
246 749 265 808 34 103 37 107 57 96 45 -24 127 -111 141 -152 41 -111 104
-1155 106 -1761 1 -199 -1 -227 -20 -290 -41 -130 -137 -317 -253 -488 -26
-39 -35 -62 -29 -70 385 -489 639 -809 692 -872 222 -264 605 -779 817 -1096
387 -579 540 -941 672 -1594 70 -347 103 -813 83 -1173 -8 -157 -10 -165 -43
-229 -55 -108 -160 -173 -278 -173 l-46 0 -1 393 c0 423 -11 580 -59 862 -32
190 -122 555 -174 706 -156 453 -432 916 -959 1613 -161 212 -966 1235 -972
1235 -5 0 -275 -316 -292 -341 -7 -10 -11 -10 -21 3 -35 45 -290 339 -292 337
-1 -2 -188 -239 -416 -528 -689 -874 -934 -1210 -1176 -1615 -233 -388 -352
-690 -457 -1155 -89 -394 -109 -599 -110 -1112 l-1 -398 -46 0 c-118 0 -223
65 -278 172 -32 64 -34 74 -43 220 -21 355 12 834 83 1183 132 651 285 1016
669 1590 181 272 479 675 717 972 74 92 745 936 795 999 5 7 -18 53 -66 127
-97 152 -168 293 -207 408 l-31 94 1 215 c4 591 65 1640 103 1759 6 18 27 52
47 74 35 39 111 100 117 94 2 -2 123 -366 269 -809z m81 -3214 c13 -3 24 -10
24 -15 0 -10 -159 -501 -164 -506 -3 -3 -67 17 -75 23 -1 1 34 118 80 259 63
194 86 254 97 250 8 -3 25 -8 38 -11z m643 -240 c46 -140 81 -257 79 -258 -8
-7 -72 -26 -75 -23 -5 5 -163 495 -163 506 0 6 44 25 71 30 3 1 43 -114 88
-255z m-490 200 c6 -6 -71 -501 -80 -515 -4 -8 -20 -9 -44 -5 -31 6 -36 10
-32 29 3 12 22 131 43 265 l38 243 36 -6 c19 -4 37 -9 39 -11z m318 -246 c23
-145 40 -265 38 -267 -3 -2 -21 -4 -41 -5 l-38 -1 -37 235 c-46 284 -46 287
-16 293 55 11 50 24 94 -255z m-177 -23 l0 -265 -40 0 -40 0 0 265 0 265 40 0
40 0 0 -265z"/>
</g>
</svg>
